# xmcd CD database file
#
# Track frame offsets:
#	150
#	35494
#	59962
#	85735
#	117949
#
# Disc length: 1894 seconds
#
# Revision: 0
# Processed by: cddbd v1.5.2PL0 Copyright (c) Steve Scherf et al.
# Submitted via: CDex 1.51
#
DISCID=41076405
DTITLE=Soundwitch Project - Soundwitch Project
DYEAR=1900
DGENRE=Jazz
TTITLE0=Je est un Autre
TTITLE1=Raga Praha
TTITLE2=Blues For Kenny Burrell
TTITLE3=Anit Selap!
TTITLE4=Der Walzer
EXTD=
EXTT0=
EXTT1=
EXTT2=
EXTT3=
EXTT4=
PLAYORDER=
